<?xml version="1.0" encoding="UTF-8"?>
<!DOCTYPE svg PUBLIC "-//W3C//DTD SVG 1.1//EN" "http://www.w3.org/Graphics/SVG/1.1/DTD/svg11.dtd">
<!-- Creator: CorelDRAW -->
<svg xmlns="http://www.w3.org/2000/svg" xml:space="preserve" width="2048px" height="2048px" style="shape-rendering:geometricPrecision; text-rendering:geometricPrecision; image-rendering:optimizeQuality; fill-rule:evenodd; clip-rule:evenodd"
viewBox="0 0 2048 2048"
 xmlns:xlink="http://www.w3.org/1999/xlink">
 <defs>
  <style type="text/css">
   <![CDATA[
    .fil2 {fill:none}
    .fil0 {fill:#00838F}
    .fil4 {fill:#424242}
    .fil1 {fill:#E0E0E0}
    .fil3 {fill:#FBC02D}
    .fil5 {fill:white}
    .fil6 {fill:#424242;fill-rule:nonzero}
   ]]>
  </style>
 </defs>
 <g id="Layer_x0020_1">
  <metadata id="CorelCorpID_0Corel-Layer"/>
  <path class="fil0" d="M1298.67 397.725l-33.2162 0 0 -92.4272c0,-27.1949 -21.8292,-49.2981 -48.7453,-49.2981l-240.15 0 -1.11614 0 0 1536 0.0862205 0 323.117 0c62.8619,0 113.764,-51.4973 113.764,-115.055l0 -1164.18c0,-63.4961 -50.902,-115.047 -113.739,-115.047zm-323.228 -141.725l-229.99 0c-26.9256,0 -48.7725,22.1032 -48.7725,49.2981l0 92.4272 -44.4378 0c-62.8701,0 -113.766,51.5244 -113.766,115.047l0 1164.18c0,63.5575 50.8961,115.055 113.766,115.055l323.201 0 0 -1536z"/>
  <rect class="fil1" x="799.112" y="255.998" width="384.888" height="352.001"/>
  <g id="_274901984">
   <rect id="_274901216" class="fil2" width="2048" height="2048"/>
   <rect id="_274899848" class="fil2" x="255.999" y="255.999" width="1536" height="1536"/>
  </g>
  <path class="fil3" d="M823.048 1613.15c0,20.1662 -16.3512,36.4996 -36.5008,36.4996l-58.7682 0c-20.1496,0 -36.5008,-16.3335 -36.5008,-36.4996l0 -62.7945c0,-20.1484 16.3512,-36.4914 36.5008,-36.4914l58.7682 0c20.1496,0 36.5008,16.3429 36.5008,36.4914l0 62.7945z"/>
  <path class="fil3" d="M823.048 1400.71c0,20.1662 -16.3512,36.4866 -36.5008,36.4866l-58.7682 0c-20.1496,0 -36.5008,-16.3205 -36.5008,-36.4866l0 -62.8075c0,-20.1354 16.3512,-36.4796 36.5008,-36.4796l58.7682 0c20.1496,0 36.5008,16.3441 36.5008,36.4796l0 62.8075z"/>
  <path class="fil3" d="M823.048 1188.26c0,20.1709 -16.3512,36.4996 -36.5008,36.4996l-58.7682 0c-20.1496,0 -36.5008,-16.3288 -36.5008,-36.4996l0 -62.8252c0,-20.1414 16.3512,-36.4772 36.5008,-36.4772l58.7682 0c20.1496,0 36.5008,16.3358 36.5008,36.4772l0 62.8252z"/>
  <path class="fil3" d="M1042.06 1613.15c0,20.1662 -16.35,36.4996 -36.4996,36.4996l-58.7693 0c-20.1496,0 -36.4996,-16.3335 -36.4996,-36.4996l0 -62.7945c0,-20.1484 16.35,-36.4914 36.4996,-36.4914l58.7693 0c20.1496,0 36.4996,16.3429 36.4996,36.4914l0 62.7945z"/>
  <path class="fil3" d="M1042.06 1400.71c0,20.1662 -16.35,36.4866 -36.4996,36.4866l-58.7693 0c-20.1496,0 -36.4996,-16.3205 -36.4996,-36.4866l0 -62.8075c0,-20.1354 16.35,-36.4796 36.4996,-36.4796l58.7693 0c20.1496,0 36.4996,16.3441 36.4996,36.4796l0 62.8075z"/>
  <path class="fil3" d="M1042.06 1188.26c0,20.1709 -16.35,36.4996 -36.4996,36.4996l-58.7693 0c-20.1496,0 -36.4996,-16.3288 -36.4996,-36.4996l0 -62.8252c0,-20.1414 16.35,-36.4772 36.4996,-36.4772l58.7693 0c20.1496,0 36.4996,16.3358 36.4996,36.4772l0 62.8252z"/>
  <path class="fil3" d="M1270.88 1613.15c0,20.1662 -16.35,36.4996 -36.5008,36.4996l-58.7682 0c-20.1496,0 -36.4996,-16.3335 -36.4996,-36.4996l0 -62.7945c0,-20.1484 16.35,-36.4914 36.4996,-36.4914l58.7682 0c20.1508,0 36.5008,16.3429 36.5008,36.4914l0 62.7945z"/>
  <path class="fil3" d="M1270.88 1400.71c0,20.1662 -16.35,36.4866 -36.5008,36.4866l-58.7682 0c-20.1496,0 -36.4996,-16.3205 -36.4996,-36.4866l0 -62.8075c0,-20.1354 16.35,-36.4796 36.4996,-36.4796l58.7682 0c20.1508,0 36.5008,16.3441 36.5008,36.4796l0 62.8075z"/>
  <path class="fil3" d="M1270.88 1188.26c0,20.1709 -16.35,36.4996 -36.5008,36.4996l-58.7682 0c-20.1496,0 -36.4996,-16.3288 -36.4996,-36.4996l0 -62.8252c0,-20.1414 16.35,-36.4772 36.4996,-36.4772l58.7682 0c20.1508,0 36.5008,16.3358 36.5008,36.4772l0 62.8252z"/>
  <polygon class="fil4" points="878.214,477.488 1099.7,477.488 1099.7,540.772 878.214,540.772 "/>
  <polygon class="fil4" points="878.214,382.563 1099.7,382.563 1099.7,445.846 878.214,445.846 "/>
  <path class="fil5" d="M1308.58 866.43c0,45.9981 -37.3323,83.2784 -83.3056,83.2784l-499.707 0c-45.9815,0 -83.2796,-37.2803 -83.2796,-83.2784l0 -86.0351c0,-46.0241 37.2981,-83.2949 83.2796,-83.2949l499.707 0c45.9733,0 83.3056,37.2981 83.3056,83.3044l0 86.0257z"/>
  <polygon class="fil6" points="1475.84,604.052 1475.84,1300.16 1412.55,1300.16 1412.55,604.052 "/>
 </g>
</svg>
